<svg width="30" height="27" viewBox="0 0 30 27" fill="none" xmlns="http://www.w3.org/2000/svg">
<path d="M21.8752 0.39624C20.4676 0.418134 19.0908 0.811057 17.8836 1.53533C16.6765 2.2596 15.6819 3.28958 15.0002 4.52124C14.3185 3.28958 13.3239 2.2596 12.1167 1.53533C10.9096 0.811057 9.53275 0.418134 8.12519 0.39624C5.88137 0.493729 3.76732 1.47531 2.24492 3.12653C0.722516 4.77775 -0.0844962 6.9644 0.000192003 9.20874C0.000192003 14.8925 5.98269 21.1 11.0002 25.3087C12.1205 26.2502 13.5369 26.7663 15.0002 26.7663C16.4635 26.7663 17.8799 26.2502 19.0002 25.3087C24.0177 21.1 30.0002 14.8925 30.0002 9.20874C30.0849 6.9644 29.2779 4.77775 27.7555 3.12653C26.2331 1.47531 24.119 0.493729 21.8752 0.39624ZM17.3939 23.3962C16.7239 23.9605 15.8761 24.2699 15.0002 24.2699C14.1242 24.2699 13.2765 23.9605 12.6064 23.3962C6.18394 18.0075 2.50019 12.8375 2.50019 9.20874C2.41474 7.62714 2.95815 6.0759 4.0119 4.89336C5.06564 3.71083 6.54423 2.99293 8.12519 2.89624C9.70615 2.99293 11.1847 3.71083 12.2385 4.89336C13.2922 6.0759 13.8356 7.62714 13.7502 9.20874C13.7502 9.54026 13.8819 9.8582 14.1163 10.0926C14.3507 10.327 14.6687 10.4587 15.0002 10.4587C15.3317 10.4587 15.6497 10.327 15.8841 10.0926C16.1185 9.8582 16.2502 9.54026 16.2502 9.20874C16.1647 7.62714 16.7081 6.0759 17.7619 4.89336C18.8156 3.71083 20.2942 2.99293 21.8752 2.89624C23.4561 2.99293 24.9347 3.71083 25.9885 4.89336C27.0422 6.0759 27.5856 7.62714 27.5002 9.20874C27.5002 12.8375 23.8164 18.0075 17.3939 23.3912V23.3962Z" fill="#031412"/>
</svg>
