<svg width="28" height="30" viewBox="0 0 28 30" fill="none" xmlns="http://www.w3.org/2000/svg">
<g clip-path="url(#clip0_24811_91)">
<path d="M26.4985 5.19634C26.1703 4.78346 25.7595 4.4514 25.2951 4.22373C24.8308 3.99607 24.3243 3.87838 23.8117 3.87904H4.949L4.9 3.44973C4.79972 2.55736 4.39062 1.73459 3.75024 1.13739C3.10986 0.540201 2.28273 0.210104 1.42567 0.209686L1.16667 0.209686C0.857247 0.209686 0.560501 0.33855 0.341709 0.567929C0.122916 0.797308 0 1.10841 0 1.4328C0 1.7572 0.122916 2.0683 0.341709 2.29768C0.560501 2.52706 0.857247 2.65592 1.16667 2.65592H1.42567C1.71142 2.65596 1.98723 2.76595 2.20077 2.96502C2.41431 3.1641 2.55073 3.43841 2.58417 3.73593L4.1895 18.0464C4.35616 19.5347 5.03822 20.907 6.10623 21.9029C7.17423 22.8988 8.55383 23.449 9.98317 23.4489H22.1667C22.4761 23.4489 22.7728 23.3201 22.9916 23.0907C23.2104 22.8613 23.3333 22.5502 23.3333 22.2258C23.3333 21.9014 23.2104 21.5903 22.9916 21.3609C22.7728 21.1316 22.4761 21.0027 22.1667 21.0027H9.98317C9.26107 21.0006 8.55727 20.7643 7.96826 20.3264C7.37925 19.8884 6.93387 19.2702 6.69317 18.5565H20.5998C21.9675 18.5565 23.2917 18.0528 24.3411 17.1333C25.3905 16.2137 26.0984 14.9369 26.341 13.5258L27.2568 8.20031C27.3483 7.67194 27.3277 7.12895 27.1967 6.60982C27.0656 6.09069 26.8273 5.60813 26.4985 5.19634ZM24.9667 7.76611L24.0497 13.0916C23.904 13.9392 23.4785 14.7061 22.8478 15.2579C22.2171 15.8098 21.4214 16.1115 20.5998 16.1102H6.32217L5.22433 6.32528H23.8117C23.9831 6.3242 24.1526 6.36273 24.3081 6.43811C24.4637 6.5135 24.6015 6.6239 24.7118 6.76145C24.822 6.899 24.902 7.06033 24.9461 7.23397C24.9902 7.40762 24.9972 7.5893 24.9667 7.76611Z" fill="url(#paint0_linear_24811_91)"/>
<path d="M8.16536 29.5645C9.45403 29.5645 10.4987 28.4693 10.4987 27.1183C10.4987 25.7673 9.45403 24.672 8.16536 24.672C6.8767 24.672 5.83203 25.7673 5.83203 27.1183C5.83203 28.4693 6.8767 29.5645 8.16536 29.5645Z" fill="url(#paint1_linear_24811_91)"/>
<path d="M19.8333 29.5645C21.122 29.5645 22.1667 28.4693 22.1667 27.1183C22.1667 25.7673 21.122 24.672 19.8333 24.672C18.5447 24.672 17.5 25.7673 17.5 27.1183C17.5 28.4693 18.5447 29.5645 19.8333 29.5645Z" fill="url(#paint2_linear_24811_91)"/>
</g>
<defs>
<linearGradient id="paint0_linear_24811_91" x1="6.08297" y1="-8.15643" x2="28.6815" y2="-7.14549" gradientUnits="userSpaceOnUse">
<stop stop-color="#5E3928"/>
<stop offset="0.911458" stop-color="#E4A16F"/>
</linearGradient>
<linearGradient id="paint1_linear_24811_91" x1="6.87136" y1="22.9107" x2="10.7352" y2="23.051" gradientUnits="userSpaceOnUse">
<stop stop-color="#5E3928"/>
<stop offset="0.911458" stop-color="#E4A16F"/>
</linearGradient>
<linearGradient id="paint2_linear_24811_91" x1="18.5393" y1="22.9107" x2="22.4031" y2="23.051" gradientUnits="userSpaceOnUse">
<stop stop-color="#5E3928"/>
<stop offset="0.911458" stop-color="#E4A16F"/>
</linearGradient>
<clipPath id="clip0_24811_91">
<rect width="28" height="29.3548" fill="white" transform="translate(0 0.209686)"/>
</clipPath>
</defs>
</svg>
