<svg width="18" height="12" viewBox="0 0 18 12" fill="none" xmlns="http://www.w3.org/2000/svg">
<path d="M0.0419731 6.22494C0.0480461 6.24057 0.0546989 6.25596 0.0619354 6.2711C0.860147 7.92891 2.10242 9.3312 3.65427 10.3265C5.24878 11.3491 7.0973 11.8895 8.99989 11.8895C10.9025 11.8895 12.7511 11.349 14.3456 10.3263C15.8918 9.3347 17.1306 7.93888 17.9291 6.28906C18.0186 6.11764 18.0253 5.91038 17.9383 5.72964C17.1401 4.07158 15.8979 2.66904 14.3458 1.67362C12.7512 0.650839 10.9026 0.110296 8.99989 0.110296C7.09722 0.110296 5.24861 0.650839 3.6541 1.67354C2.10209 2.66887 0.859898 4.07133 0.0616856 5.72923C-0.0130043 5.88451 -0.0199909 6.06425 0.0419731 6.22494ZM8.99989 1.35798C12.209 1.35798 15.1896 3.17024 16.6778 6.00004C15.1896 8.82984 12.209 10.642 8.99989 10.642C5.7909 10.642 2.81014 8.82967 1.32201 5.99995C2.81023 3.1704 5.79099 1.35798 8.99989 1.35798Z" fill="#031412"/>
<path d="M9.00047 8.73779C10.5101 8.73779 11.7383 7.50958 11.7383 5.99998C11.7383 4.49039 10.5101 3.26217 9.00047 3.26217C7.49087 3.26217 6.26265 4.49039 6.26265 5.99998C6.26265 7.50958 7.49087 8.73779 9.00047 8.73779ZM9.00047 4.50977C9.82214 4.50977 10.4907 5.17831 10.4907 5.99998C10.4907 6.82165 9.82214 7.4902 9.00047 7.4902C8.1788 7.4902 7.51025 6.82165 7.51025 5.99998C7.51025 5.17831 8.1788 4.50977 9.00047 4.50977Z" fill="#031412"/>
</svg>
