<svg width="30" height="32" viewBox="0 0 30 32" fill="none" xmlns="http://www.w3.org/2000/svg">
<g clip-path="url(#clip0_24811_105)">
<path d="M21.8732 2.67349C20.4657 2.69645 19.0888 3.10838 17.8817 3.8677C16.6746 4.62702 15.6799 5.70683 14.9982 6.99809C14.3165 5.70683 13.3219 4.62702 12.1148 3.8677C10.9077 3.10838 9.5308 2.69645 8.12324 2.67349C5.87941 2.7757 3.76537 3.80477 2.24297 5.53589C0.720563 7.26701 -0.0864493 9.55946 -0.00176112 11.9124C-0.00176112 17.8712 5.98074 24.379 10.9982 28.7914C12.1185 29.7784 13.5349 30.3195 14.9982 30.3195C16.4615 30.3195 17.878 29.7784 18.9982 28.7914C24.0157 24.379 29.9982 17.8712 29.9982 11.9124C30.0829 9.55946 29.2759 7.26701 27.7535 5.53589C26.2311 3.80477 24.1171 2.7757 21.8732 2.67349ZM17.392 26.7864C16.722 27.3779 15.8742 27.7023 14.9982 27.7023C14.1223 27.7023 13.2745 27.3779 12.6045 26.7864C6.18199 21.1369 2.49824 15.7167 2.49824 11.9124C2.41279 10.2543 2.9562 8.62797 4.00994 7.38822C5.06369 6.14846 6.54228 5.39583 8.12324 5.29446C9.7042 5.39583 11.1828 6.14846 12.2365 7.38822C13.2903 8.62797 13.8337 10.2543 13.7482 11.9124C13.7482 12.26 13.8799 12.5933 14.1144 12.8391C14.3488 13.0848 14.6667 13.2229 14.9982 13.2229C15.3298 13.2229 15.6477 13.0848 15.8821 12.8391C16.1165 12.5933 16.2482 12.26 16.2482 11.9124C16.1628 10.2543 16.7062 8.62797 17.7599 7.38822C18.8137 6.14846 20.2923 5.39583 21.8732 5.29446C23.4542 5.39583 24.9328 6.14846 25.9865 7.38822C27.0403 8.62797 27.5837 10.2543 27.4982 11.9124C27.4982 15.7167 23.8145 21.1369 17.392 26.7811V26.7864Z" fill="#0B3F37"/>
</g>
<defs>
<clipPath id="clip0_24811_105">
<rect width="30" height="31.4516" fill="white" transform="translate(0 0.161301)"/>
</clipPath>
</defs>
</svg>
