<svg width="30" height="32" viewBox="0 0 30 32" fill="none" xmlns="http://www.w3.org/2000/svg">
<g clip-path="url(#clip0_24811_85)">
<path d="M15 15.8871C16.4834 15.8871 17.9334 15.426 19.1668 14.562C20.4001 13.698 21.3614 12.47 21.9291 11.0332C22.4968 9.59645 22.6453 8.01548 22.3559 6.49023C22.0665 4.96497 21.3522 3.56394 20.3033 2.46429C19.2544 1.36465 17.918 0.615779 16.4632 0.312388C15.0083 0.00899591 13.5003 0.164708 12.1299 0.759832C10.7594 1.35496 9.58809 2.36276 8.76398 3.65581C7.93987 4.94886 7.5 6.46907 7.5 8.0242C7.50199 10.1089 8.2928 12.1077 9.69889 13.5818C11.105 15.0559 13.0115 15.885 15 15.8871ZM15 2.78227C15.9889 2.78227 16.9556 3.0897 17.7779 3.6657C18.6001 4.24169 19.241 5.06036 19.6194 6.0182C19.9978 6.97604 20.0969 8.03002 19.9039 9.04685C19.711 10.0637 19.2348 10.9977 18.5355 11.7308C17.8363 12.4639 16.9454 12.9632 15.9755 13.1654C15.0055 13.3677 14.0002 13.2639 13.0866 12.8671C12.173 12.4704 11.3921 11.7985 10.8427 10.9365C10.2932 10.0744 10 9.06096 10 8.0242C10 6.63396 10.5268 5.30065 11.4645 4.3176C12.4021 3.33454 13.6739 2.78227 15 2.78227Z" fill="#0B3F37"/>
<path d="M15 18.5081C12.0173 18.5115 9.15777 19.7553 7.0487 21.9664C4.93964 24.1775 3.75331 27.1754 3.75 30.3024C3.75 30.65 3.8817 30.9833 4.11612 31.2291C4.35054 31.4748 4.66848 31.6129 5 31.6129C5.33152 31.6129 5.64946 31.4748 5.88388 31.2291C6.1183 30.9833 6.25 30.65 6.25 30.3024C6.25 27.8695 7.17187 25.5362 8.81281 23.8159C10.4538 22.0955 12.6794 21.129 15 21.129C17.3206 21.129 19.5462 22.0955 21.1872 23.8159C22.8281 25.5362 23.75 27.8695 23.75 30.3024C23.75 30.65 23.8817 30.9833 24.1161 31.2291C24.3505 31.4748 24.6685 31.6129 25 31.6129C25.3315 31.6129 25.6495 31.4748 25.8839 31.2291C26.1183 30.9833 26.25 30.65 26.25 30.3024C26.2467 27.1754 25.0604 24.1775 22.9513 21.9664C20.8422 19.7553 17.9827 18.5115 15 18.5081Z" fill="#0B3F37"/>
</g>
<defs>
<clipPath id="clip0_24811_85">
<rect width="30" height="31.4516" fill="white" transform="translate(0 0.161301)"/>
</clipPath>
</defs>
</svg>
